<svg width="66" height="66" xmlns="http://www.w3.org/2000/svg" xmlns:xlink="http://www.w3.org/1999/xlink" xmlns:svgjs="http://svgjs.com/svgjs" viewBox="0 0.001 66 65.999" fill="#3172b9"><svg xmlns="http://www.w3.org/2000/svg" width="66" height="66" viewBox="1.998 2 65.001 65"><path paint-order="stroke fill markers" fill-rule="evenodd" d="M44.613 32.99l2.862-2.862a6.346 6.346 0 0 0 5.027-1.85l2.725-2.725a6.393 6.393 0 0 0 0-9.03L42.574 3.87A6.345 6.345 0 0 0 38.058 2c-1.706 0-3.31.664-4.516 1.87l-2.725 2.725a6.373 6.373 0 0 0-1.848 5.024l-17.352 17.35a6.345 6.345 0 0 0-5.027 1.85l-2.725 2.725a6.392 6.392 0 0 0 0 9.03L16.52 55.228a6.344 6.344 0 0 0 4.515 1.87c1.706 0 3.31-.664 4.516-1.87l2.726-2.725a6.344 6.344 0 0 0 1.85-5.027l2.862-2.862L53.507 65.13A6.344 6.344 0 0 0 58.023 67c1.706 0 3.31-.664 4.516-1.87l2.592-2.593a6.393 6.393 0 0 0 0-9.03L44.613 32.99zm-14.91 8.254l-5.155 5.154.4.4a1.68 1.68 0 0 1 0 2.377L22.223 51.9a1.675 1.675 0 0 1-1.189.492c-.43 0-.86-.164-1.188-.492L7.193 39.247a1.68 1.68 0 0 1 0-2.376l2.725-2.725a1.676 1.676 0 0 1 1.188-.492c.43 0 .86.164 1.189.492l.4.4 21.85-21.847-.4-.4a1.68 1.68 0 0 1 0-2.377l2.725-2.725a1.676 1.676 0 0 1 1.188-.492c.43 0 .86.164 1.188.492L51.9 19.85a1.68 1.68 0 0 1 0 2.376l-2.725 2.725a1.676 1.676 0 0 1-1.189.492c-.43 0-.86-.164-1.188-.492l-.4-.4-5.155 5.155-3.46 3.459-4.62 4.619-3.46 3.46zM61.804 59.21l-2.593 2.593a1.675 1.675 0 0 1-1.188.492c-.43 0-.86-.164-1.189-.492L36.316 41.286l4.97-4.97 20.518 20.518a1.68 1.68 0 0 1 0 2.376z"/></svg></svg>