<svg width="87" height="65" xmlns="http://www.w3.org/2000/svg" xmlns:xlink="http://www.w3.org/1999/xlink" xmlns:svgjs="http://svgjs.com/svgjs" viewBox="0 0.128 87 64.744" fill="#3172b9"><svg xmlns="http://www.w3.org/2000/svg" width="87" height="65" viewBox="1 1 86 63.999"><path paint-order="stroke fill markers" fill-rule="evenodd" d="M74.693 6.938A20.09 20.09 0 0 0 60.382 1 20.089 20.089 0 0 0 46.07 6.938l-1.607 1.609-1.607-1.61A20.093 20.093 0 0 0 28.544 1a20.089 20.089 0 0 0-14.311 5.938c-7.892 7.903-7.892 20.764 0 28.668l28.722 28.768a2.13 2.13 0 0 0 3.016 0l28.722-28.768a20.154 20.154 0 0 0 5.929-14.334 20.154 20.154 0 0 0-5.929-14.334zm-3.015 25.648L44.463 59.844 17.248 32.586c-6.229-6.239-6.229-16.39 0-22.629a15.857 15.857 0 0 1 11.296-4.686c4.267 0 8.279 1.665 11.297 4.686l3.114 3.12a2.128 2.128 0 0 0 3.015 0l3.115-3.12A15.86 15.86 0 0 1 60.38 5.271a15.86 15.86 0 0 1 11.297 4.686c6.229 6.24 6.229 16.39 0 22.629zM10.95 27.982H3.132A2.134 2.134 0 0 0 1 30.118c0 1.18.955 2.136 2.132 2.136h7.818a2.134 2.134 0 0 0 2.133-2.136c0-1.18-.955-2.136-2.133-2.136zm66.809.07H57.352l-3.176-6.996a1.419 1.419 0 0 0-2.633.112l-6.49 18.32L37.162 17.6a1.422 1.422 0 0 0-1.27-.938 1.381 1.381 0 0 0-1.353.816l-5.302 11.284H11.66c-.785 0-1.421.638-1.421 1.424 0 .786.935 1.354 1.72 1.354h18.48c.55 0 .753-.249.987-.747l4.227-8.996 8.076 22.399c.204.563.738.94 1.337.94h.003a1.421 1.421 0 0 0 1.335-.948l6.642-18.746 2.097 4.62c.23.51 1.036.767 1.593.767H78.06c.785 0 1.121-.57 1.121-1.355 0-.786-.636-1.424-1.421-1.424zm7.109-.782H78.47a2.134 2.134 0 0 0-2.132 2.136c0 1.18.954 2.135 2.132 2.135h6.397A2.134 2.134 0 0 0 87 29.406a2.134 2.134 0 0 0-2.132-2.136z"/></svg></svg>