<svg width="21" height="21" xmlns="http://www.w3.org/2000/svg" xmlns:xlink="http://www.w3.org/1999/xlink" xmlns:svgjs="http://svgjs.com/svgjs" viewBox="0.303 0 20.395 21" fill="#1c1c1c"><svg xmlns="http://www.w3.org/2000/svg" width="21" height="21" viewBox="1.927 1 18.498 19.047"><path paint-order="stroke fill markers" fill-rule="evenodd" d="M20.425 12.678v7.37h-3.964v-6.876c0-1.728-.574-2.907-2.01-2.907-1.095 0-1.747.795-2.033 1.563-.105.275-.132.657-.132 1.042v7.177H8.32s.054-11.645 0-12.852h3.966v1.822c-.008.014-.019.028-.026.041h.026v-.04c.527-.875 1.468-2.125 3.574-2.125 2.61 0 4.565 1.837 4.565 5.785zM4.172 1c-1.357 0-2.245.959-2.245 2.22 0 1.234.862 2.222 2.192 2.222h.026c1.383 0 2.244-.988 2.244-2.222C6.362 1.96 5.529 1 4.172 1zm-2.01 19.047h3.965V7.195H2.163v12.852z"/></svg></svg>