<svg width="65" height="65" xmlns="http://www.w3.org/2000/svg" xmlns:xlink="http://www.w3.org/1999/xlink" xmlns:svgjs="http://svgjs.com/svgjs" viewBox="0 0 64.999 65" fill="#fff"><svg xmlns="http://www.w3.org/2000/svg" width="65" height="65" viewBox="2.001 2 63.999 64"><path paint-order="stroke fill markers" fill-rule="evenodd" d="M65.548 14.023a3.974 3.974 0 0 0-2.343-1.97L41.066 5.04c-.008-.003-.017-.004-.026-.006l-.077-.242a4.005 4.005 0 0 0-5.02-2.605L4.795 12.052a3.973 3.973 0 0 0-2.343 1.971 3.974 3.974 0 0 0-.263 3.05l14.616 46.134a4.007 4.007 0 0 0 5.02 2.606L34 61.957l12.173 3.856a4.007 4.007 0 0 0 5.021-2.605l2.367-7.471.009-.033a3.968 3.968 0 0 0 1.747-1.728 3.973 3.973 0 0 0 .262-3.05l-.247-.78L65.81 17.073a3.973 3.973 0 0 0-.262-3.05zM48.653 62.402c-.222.701-.973 1.09-1.675.868l-8.562-2.712 12.028-3.81-1.791 5.654zm4.297-9.654c-.164.316-.442.55-.781.657l-18.523 5.867c-.029.008-.057.017-.086.027l-12.539 3.972a1.335 1.335 0 0 1-1.674-.869L4.731 16.269c-.107-.34-.076-.701.088-1.017.164-.317.441-.55.78-.657l31.149-9.866a1.334 1.334 0 0 1 1.673.869L53.037 51.73c.108.34.077.7-.087 1.017zM44.445 15.78l11 3.484-4.948 15.62-6.052-19.104zm18.824.488l-9.335 29.464-2.038-6.434 6.092-19.228a2.65 2.65 0 0 0-.176-2.034 2.65 2.65 0 0 0-1.561-1.313l-12.518-3.965a1.38 1.38 0 0 0-.263-.056l-1.446-4.561L62.4 14.595c.34.107.617.34.781.656.164.317.195.677.088 1.017zm-34.083 8.746a4.947 4.947 0 0 0-2.607 1.964 4.949 4.949 0 0 0-3.262-.104 4.893 4.893 0 0 0-2.884 2.427 4.891 4.891 0 0 0-.323 3.755 4.607 4.607 0 0 0 2.656 2.88l5.52 2.255a2.753 2.753 0 0 0 3.356-1.064l3.213-5.021a4.606 4.606 0 0 0 .513-3.885 4.892 4.892 0 0 0-2.427-2.884 4.896 4.896 0 0 0-3.755-.323zm3.423 5.654l-3.213 5.022a.081.081 0 0 1-.045.034.079.079 0 0 1-.058-.002l-5.518-2.254a1.947 1.947 0 0 1-1.123-1.217 2.243 2.243 0 0 1 .148-1.722 2.27 2.27 0 0 1 2.01-1.22c.54 0 1.067.195 1.49.567a1.334 1.334 0 0 0 2.177-.69 2.244 2.244 0 0 1 1.514-1.63 2.242 2.242 0 0 1 1.722.148c.536.278.93.748 1.113 1.322a1.948 1.948 0 0 1-.217 1.642zm3.684-18.922a2.67 2.67 0 0 0-3.348-1.737L11.75 16.723a2.65 2.65 0 0 0-1.561 1.313 2.649 2.649 0 0 0-.176 2.034l9.88 31.187a2.671 2.671 0 0 0 3.348 1.737l21.196-6.714a2.649 2.649 0 0 0 1.562-1.314c.328-.632.39-1.354.175-2.033l-9.88-31.187zM22.435 50.45l-9.88-31.186 11.424-3.619 9.772-3.094 9.88 31.186-21.196 6.713z"/></svg></svg>