<svg width="26" height="19" xmlns="http://www.w3.org/2000/svg" xmlns:xlink="http://www.w3.org/1999/xlink" xmlns:svgjs="http://svgjs.com/svgjs" viewBox="0 0.043 26 18.915" fill="#1c1c1c"><svg xmlns="http://www.w3.org/2000/svg" width="26" height="19" viewBox="1.952 1.503 24.047 17.494"><path paint-order="stroke fill markers" fill-rule="evenodd" d="M23.746 1.503H4.206c-1.242 0-2.254 1.053-2.254 2.349v12.795c0 1.296 1.012 2.35 2.255 2.35h19.539c1.243 0 2.254-1.054 2.254-2.35V3.852c0-1.296-1.011-2.35-2.254-2.35zm-.37 1.566l-9.4 7.065-9.4-7.065h18.8zm.37 14.361H4.206c-.414 0-.75-.35-.75-.783V4.158l10.08 7.578a.73.73 0 0 0 .88 0l10.081-7.578v12.49c0 .432-.337.782-.751.782z"/></svg></svg>