<svg width="69" height="67" xmlns="http://www.w3.org/2000/svg" xmlns:xlink="http://www.w3.org/1999/xlink" xmlns:svgjs="http://svgjs.com/svgjs" viewBox="0 0.014 69 66.972" fill="#3172b9"><svg xmlns="http://www.w3.org/2000/svg" width="69" height="67" viewBox="2.001 2 67.998 66"><path paint-order="stroke fill markers" fill-rule="evenodd" d="M52.393 2.004C42.438 1.788 34.146 9.638 33.9 19.512l-.124 4.971c-.034 1.356 1.057 2.49 2.424 2.52 1.367.029 2.513-1.056 2.546-2.412l.125-4.971c.178-7.149 6.191-12.842 13.4-12.686 7.207.157 12.93 6.104 12.752 13.253-.179 7.148-6.192 12.842-13.4 12.685L20.5 32.197c-9.955-.216-18.247 7.634-18.493 17.508-.247 9.874 7.644 18.075 17.6 18.29 9.955.216 18.247-7.633 18.493-17.507l.123-4.916c.034-1.357-1.057-2.49-2.424-2.52-1.367-.03-2.513 1.056-2.547 2.412l-.123 4.916c-.178 7.149-6.191 12.842-13.4 12.686-7.207-.157-12.93-6.104-12.752-13.253.179-7.149 6.192-12.842 13.4-12.686l31.123.675c9.956.216 18.247-7.633 18.494-17.507.246-9.874-7.645-18.075-17.6-18.29z"/></svg></svg>