<?xml version="1.0" standalone="no"?>
<!DOCTYPE svg PUBLIC "-//W3C//DTD SVG 20010904//EN"
 "http://www.w3.org/TR/2001/REC-SVG-20010904/DTD/svg10.dtd">
<svg version="1.0" xmlns="http://www.w3.org/2000/svg"
 width="256.000000pt" height="256.000000pt" viewBox="0 0 256.000000 256.000000"
 preserveAspectRatio="xMidYMid meet">
<metadata>
Created by potrace 1.14, written by Peter Selinger 2001-2017
</metadata>
<g transform="translate(0.000000,256.000000) scale(0.100000,-0.100000)"
fill="#000000" stroke="none">
<path d="M279 2477 c-74 -49 -69 24 -69 -1097 0 -1121 -5 -1048 69 -1097 34
-23 37 -23 368 -23 220 0 332 -3 328 -10 -3 -6 -19 -10 -34 -10 -16 0 -39 -9
-52 -19 -21 -17 -24 -28 -24 -88 l0 -68 468 -3 c257 -1 467 1 468 5 1 5 2 32
3 61 2 67 -30 113 -81 114 -18 1 -33 5 -33 10 0 4 34 8 75 8 87 0 122 14 156
62 21 29 24 44 24 149 0 64 2 116 5 114 3 -1 58 -33 124 -70 144 -83 180 -89
230 -41 43 40 55 90 31 135 -18 35 -55 61 -250 171 -71 41 -132 75 -133 76 -2
2 -5 351 -5 778 -2 762 -2 775 -22 802 -11 15 -36 35 -55 45 -33 18 -74 19
-796 19 l-761 0 -34 -23z"/>
</g>
</svg>
